<?xml version="1.0" encoding="UTF-8" standalone="no"?>
<svg width="106px" height="33px" viewBox="0 0 106 33" version="1.1" xmlns="http://www.w3.org/2000/svg" xmlns:xlink="http://www.w3.org/1999/xlink">
    <!-- Generator: sketchtool 49 (51002) - http://www.bohemiancoding.com/sketch -->
    <title>E4A6BE16-B169-4B3C-A5CA-E7B88A3076D1@3x</title>
    <desc>Created with sketchtool.</desc>
    <defs></defs>
    <g id="Symbols" stroke="none" stroke-width="1" fill="none" fill-rule="evenodd">
        <g id="Navigation/application" transform="translate(-96.000000, -21.000000)" fill-rule="nonzero">
            <g id="Group-4" transform="translate(96.000000, 21.000000)">
                <rect id="Rectangle-path" fill="#EA5B62" x="47" y="0" width="33" height="33" rx="4"></rect>
                <polygon id="L" fill="#2996CC" points="2.03134796 26.505 18 26.505 18 28 0 28 0 5 2.03134796 5"></polygon>
                <path d="M105.217893,11.8473294 C104.738744,10.4718811 103.984103,9.21571183 103.003012,8.16045434 C102.042692,7.13804573 100.880718,6.33979873 99.5955017,5.81958128 C98.2001796,5.26786572 96.7170147,4.9899848 95.2225303,5.00027571 L85,5.00027571 L85,27.9993536 L95.2225303,27.9993536 C96.7174834,28.0152682 98.2016619,27.7371973 99.5955017,27.180048 C100.882377,26.6631108 102.044993,25.8644235 103.003012,24.8391749 C103.984103,23.7839174 104.738744,22.5277482 105.217893,21.1522999 C106.260702,18.0232871 106.260702,14.6252112 105.217893,11.4961985 L105.217893,11.8473294 Z M103.968473,16.6461192 C103.992101,18.0768805 103.78089,19.501467 103.343763,20.8596907 C102.970736,22.0076082 102.371331,23.0636137 101.583216,23.9613475 C100.824191,24.8047429 99.8931958,25.4642993 98.8572078,25.8925678 C97.7152086,26.3398431 96.5008407,26.5583345 95.2793222,26.5363079 L86.9877142,26.5363079 L86.9877142,6.81445233 L95.2225303,6.81445233 C96.4441577,6.79097925 97.65879,7.00951823 98.800416,7.45819242 C99.8373054,7.88472557 100.768648,8.54452865 101.526424,9.3894127 C102.31454,10.2871465 102.913944,11.3431521 103.286971,12.4910695 C103.718851,13.8304363 103.930009,15.2348772 103.911681,16.6461192 L103.968473,16.6461192 Z M103.968473,9.91610914 L103.968473,10.2087183 L103.968473,9.91610914 Z M103.968473,23.0835201 L103.968473,23.3761293 L103.968473,23.0835201 Z" id="D" fill="#2996CC"></path>
                <path d="M63.5,5.8607963 C62.273702,5.83528175 61.0557843,6.07463378 59.9244448,6.56348451 C58.9059635,7.01986546 57.9957951,7.69919623 57.2569671,8.55443444 C56.5028659,9.4233967 55.9240586,10.4386197 55.5543218,11.5408593 C55.1629096,12.7484373 54.9710529,14.015317 54.9867734,15.2885298 L54.9867734,27 L53.0003538,27 L53.0003538,15.2885298 C52.9892613,13.7717307 53.2390699,12.2649294 53.7381668,10.8381711 C54.2015209,9.51555226 54.9153622,8.30130195 55.838096,7.26617272 C56.7592704,6.23567329 57.8810112,5.41753477 59.129877,4.86532133 C61.9359891,3.71155956 65.0640109,3.71155956 67.870123,4.86532133 C69.1189888,5.41753477 70.2407296,6.23567329 71.161904,7.26617272 C72.0858608,8.30035321 72.7998597,9.51487161 73.2618332,10.8381711 C73.7609301,12.2649294 74.0107387,13.7717307 73.9996462,15.2885298 L73.9996462,27 L71.9564718,27 L71.9564718,15.2885298 C71.9721923,14.015317 71.7803356,12.7484373 71.3889233,11.5408593 C71.034807,10.443935 70.4756242,9.42931257 69.7430329,8.55443444 C69.0042049,7.69919623 68.0940365,7.01986546 67.0755552,6.56348451 C65.9452011,6.07126501 64.7265819,5.83177511 63.5,5.8607963 Z" id="N" fill="#FFFFFF"></path>
                <path d="M42,15.5440694 L21.8685349,15.5440694 C21.9315205,14.5082002 22.1681792,13.4900288 22.5687598,12.5315078 C23.0648824,11.403278 23.8014761,10.3952496 24.7277865,9.57688012 C25.6844675,8.75275031 26.7946581,8.12290223 27.9955026,7.72299609 C29.2923398,7.28883541 30.6532708,7.0734303 32.0217956,7.08572345 L41.8832959,7.08572345 L41.8832959,5.00010391 L32.0801476,5.00010391 C30.4689834,4.99386764 28.8692157,5.26838906 27.3536298,5.81117817 C25.9351497,6.31071566 24.6273841,7.07794796 23.502393,8.07059934 C22.4000886,9.07393405 21.5249559,10.2982379 20.9349018,11.6624997 C19.6883661,14.7487251 19.6883661,18.1932976 20.9349018,21.2795231 C21.5209081,22.6628328 22.3960293,23.9068671 23.502393,24.9293573 C24.6273841,25.9220087 25.9351497,26.689241 27.3536298,27.1887785 C28.8689041,27.7327359 30.468882,28.0072934 32.0801476,27.9998527 L41.9416479,27.9998527 L41.9416479,25.9142332 L32.0801476,25.9142332 C30.7117864,25.9243627 29.351214,25.7090144 28.0538546,25.2769605 C26.8517541,24.8798411 25.7410391,24.2496955 24.7861386,23.4230765 C23.8625518,22.6022631 23.1264197,21.5948664 22.6271119,20.4684488 C22.2198101,19.5493884 21.9636952,18.5713906 21.8685349,17.571755 L41.9416479,17.571755 L42,15.5440694 Z" id="Shape" fill="#2996CC"></path>
            </g>
        </g>
    </g>
</svg>